#!OML:ASF E:/inclinewalkrobotboard/Project1/Captureday1/Session1/subject1.ASF
:FULLY-SPECIFIED
:DEGREES
163
root 0 0 0 45.048307697124294 -47.22471473322548 -18.528263794258635
lowerback -6.494940748621328 3.608936594120076 -0.4833626443861537
upperback -13.454317092139636 4.315956888750387 -0.08713857907871247
thorax -11.053541079625196 2.1143064922521404 0.673873969464287
lowerneck -11.436415702039394 6.782181780862911 4.4499485405038
upperneck 18.15871942385414 7.2560143134177135 7.293287767055965
head 7.628488847650528 4.240302453731106 2.165862225329996
rclavicle 8.877762439927952E-16 -1.8105127829499507E-15
rhumerus 8.153646393111329 -22.458091645843986 -48.610481462262996
rradius 27.870465529623914
rwrist 21.423567396359758
rhand 0.8608121302921621 7.325046285217539
rfingers 7.125020000000029
rthumb 26.475897099034277 -19.722744293338813
lclavicle 1.3939799711211717E-15 -9.250012733032702E-16
lhumerus -10.521506835406605 3.9832668357107037 51.19892593060861
lradius 35.523923780838416
lwrist -7.937710453423213
lhand -1.812348211506233 23.358459454289644
lfingers 7.125019999999976
lthumb 23.471001461500233 50.543580323354604
rfemur 58.970706826888986 -81.97380412376091 -56.15974751886632
rtibia 40.213142870175496
rfoot -18.427677350589455 -17.980270787704555
rtoes 21.638863994751283
lfemur -44.76150656892273 8.228464853068546 -27.130958957265044
ltibia 44.05984825146247
lfoot -22.77507641169535 14.919375803596228
ltoes 10.884142546810555
164
root 0 0 0 45.03772856623481 -47.20977733853745 -18.523608669644076
lowerback -6.493282353798481 3.6082276781036153 -0.4830939474321488
upperback -13.450372019855266 4.3152354115121625 -0.0864952720585519
thorax -11.050285848170414 2.1139258037606736 0.6741673748039032
lowerneck -11.437665728510785 6.778426322916226 4.447985301478101
upperneck 18.162950757482445 7.251417976559228 7.290308591240516
head 7.630297816685509 4.23786000702184 2.164903083199148
rclavicle 8.900070843292834E-16 -1.8121591073957485E-15
rhumerus 8.124727767464247 -22.458832703134803 -48.603655231038914
rradius 27.87622763069242
rwrist 21.40659368974854
rhand 0.853892382739998 7.332882441146837
rfingers 7.125020000000029
rthumb 26.469467750565975 -19.716033256329293
lclavicle 1.397634301300545E-15 -9.237714073610983E-16
lhumerus -10.52905334289274 3.974422665572667 51.21967244624536
lradius 35.52986591190702
lwrist -7.9238620510012225
lhand -1.8134015026441705 23.356085556694502
lfingers 7.125019999999976
lthumb 23.469089195727886 50.54098480879755
rfemur 58.91604078513798 -81.91351072250687 -56.10073859123506
rtibia 40.21362028667555
rfoot -18.425481662347828 -17.97313239847249
rtoes 21.633780261548957
lfemur -44.74365551032153 8.222321305200797 -27.12757512805875
ltibia 44.05488076497769
lfoot -22.769780377344837 14.910747607300868
ltoes 10.876783050348859
165
root 0 0 0 45.06065072685334 -47.21134070161847 -18.530917540896883
lowerback -6.505921978166509 3.6085603944437303 -0.48227683930642223
upperback -13.45589639355628 4.316594693936062 -0.08476213453806736
thorax -11.049573422404741 2.114588389639901 0.67599104030617
lowerneck -11.434001412822042 6.777387880432173 4.44778943179248
upperneck 18.170114890855317 7.250052797969213 7.2908239159352775
head 7.632520920545898 4.237172069998055 2.164899648229068
rclavicle 8.895889686465613E-16 -1.8127695907015866E-15
rhumerus 8.165856037360314 -22.461315908689258 -48.57976588959836
rradius 27.868618929821178
rwrist 21.427288947779612
rhand 0.8803296351607433 7.309750431817155
rfingers 7.125020000000029
rthumb 26.494782618010703 -19.73512790216418
lclavicle 1.3861725936784074E-15 -9.28933502486031E-16
lhumerus -10.49561007367771 4.000068331505553 51.14685274792372
lradius 35.51827372017013
lwrist -7.964826937560103
lhand -1.7986670005552234 23.36208313973255
lfingers 7.125019999999976
lthumb 23.48623665081088 50.545578015025754
rfemur 59.08706363500353 -82.10755762322933 -56.29161210446435
rtibia 40.21341098569701
rfoot -18.437039105060805 -17.996671069362538
rtoes 21.65727198499595
lfemur -44.813041284267825 8.247839764588168 -27.136402084734836
ltibia 44.073511982130825
lfoot -22.800049485936796 14.946201473260455
ltoes 10.911416541394157
166
root 0 0 0 45.04547631376735 -47.19329973845579 -18.525107366809756
lowerback -6.502229802943709 3.6080233421325967 -0.48158828671841464
upperback -13.449902218773463 4.316046669993913 -0.08433669564184765
thorax -11.045220052196813 2.1141885991383464 0.6756530870895125
lowerneck -11.43659440931608 6.772814625736964 4.445591480264205
upperneck 18.17485362098977 7.244516700414582 7.286779999129228
head 7.634640308860691 4.23422258771025 2.163643953164345
rclavicle 8.92545501073014E-16 -1.8141292967532626E-15
rhumerus 8.135292809965286 -22.463267967868504 -48.57186723268041
rradius 27.875315911487803
rwrist 21.411101004938736
rhand 0.8719713272604324 7.318611273166718
rfingers 7.125020000000029
rthumb 26.48730621268707 -19.727454456649426
lclavicle 1.39361105955205E-15 -9.286723752523656E-16
lhumerus -10.501974270088068 3.9884494655252825 51.17352958289238
lradius 35.52816059920297
lwrist -7.947560254902484
lhand -1.7970476337614762 23.35810123147741
lfingers 7.125019999999976
lthumb 23.48714950568307 50.540927689620155
rfemur 59.03238587155065 -82.04121873997437 -56.22611647462319
rtibia 40.21303333800896
rfoot -18.42981753328195 -17.988290850553486
rtoes 21.645254435439842
lfemur -44.78977805770866 8.238912612551715 -27.133593688596026
ltibia 44.06695703381018
lfoot -22.78833579898937 14.933369905001523
ltoes 10.89858007308786
167
root 0 0 0 45.03407790355968 -47.17639961798314 -18.519742785822164
lowerback -6.500719140415918 3.60683421886295 -0.481721587721606
upperback -13.446550980153486 4.314712924642436 -0.08326063840705311
thorax -11.042422442555196 2.1135723640119677 0.6765864881987658
lowerneck -11.437073877184192 6.768840247086975 4.443213800854573
upperneck 18.178768935272902 7.239705453334997 7.284131503561113
head 7.636206212541685 4.231647739169297 2.1627824306105223
rclavicle 8.95555283549253E-16 -1.8160878460819636E-15
rhumerus 8.104451471815898 -22.465055651460922 -48.56154313248646
rradius 27.882781336175437
rwrist 21.392200875156792
rhand 0.8648956356008828 7.327026192824622
rfingers 7.125020000000029
rthumb 26.48061562421526 -19.720338736585944
lclavicle 1.3982913233273773E-15 -9.27823271355268E-16
lhumerus -10.50764290787864 3.9791329624267626 51.193758419142526
lradius 35.535846236651814
lwrist -7.933521148904022
lhand -1.7961847639790829 23.35526322623925
lfingers 7.125019999999976
lthumb 23.487100899453583 50.537551958721494
rfemur 58.99671726164834 -82.00174094241453 -56.18714200566051
rtibia 40.21312765612595
rfoot -18.428232245719695 -17.983515279511394
rtoes 21.64096405098575
lfemur -44.77514212653804 8.233718616678594 -27.130845859890748
ltibia 44.06266588615183
lfoot -22.783673443047366 14.926215246590136
ltoes 10.89234943729642
168
root 0 0 0 45.023990280090196 -47.16634886424143 -18.515453144538856
lowerback -6.497966834224531 3.6060395124589766 -0.481987796182419
upperback -13.443906527346986 4.313668488345912 -0.08288594259704585
thorax -11.04101555573903 2.1131005815395634 0.6769474582641903
lowerneck -11.437790877648945 6.766741357835327 4.44184825951757
upperneck 18.179818639915805 7.237184533915746 7.282593246437418
head 7.636714884066758 4.2302941147483235 2.162308325168504
rclavicle 8.971618547804038E-16 -1.8173003890814008E-15
rhumerus 8.077632207493155 -22.465074251769583 -48.55964125951584
rradius 27.887901895780836
rwrist 21.376671431386967
rhand 0.8565471764347148 7.335697084988743
rfingers 7.125020000000029
rthumb 26.472734482709157 -19.713006632059567
lclavicle 1.4028645554454552E-15 -9.262251527500584E-16
lhumerus -10.51636750556595 3.968268155839778 51.21887370427243
lradius 35.54322255124785
lwrist -7.916600495095331
lhand -1.7972329950254942 23.352406503867556
lfingers 7.125019999999976
lthumb 23.484969325473948 50.534385610565636
rfemur 58.93596231321605 -81.9349727219788 -56.121880831919114
rtibia 40.21361456222804
rfoot -18.42619542525984 -17.975617451794243
rtoes 21.635550533985636
lfemur -44.756516471640495 8.227158269035773 -27.128100103142646
ltibia 44.05773269922788
lfoot -22.77660232020754 14.91710203241669
ltoes 10.88384000862251
